<svg xmlns="http://www.w3.org/2000/svg" xmlns:xlink="http://www.w3.org/1999/xlink" width="62" height="23" viewBox="0 0 62 23">
    <defs>
        <path id="sndpitjyoa" d="M0 0L18.588 0 18.588 14.315 0 14.315z"/>
        <path id="wied7ml8pc" d="M0 0L3.527 0 3.527 16.851 0 16.851z"/>
    </defs>
    <g fill="none" fill-rule="evenodd">
        <g>
            <g>
                <g>
                    <g>
                        <g transform="translate(-20.000000, -4583.000000) translate(0.000000, 4276.000000) translate(20.000000, 286.000000) translate(0.000000, 21.000000)">
                            <mask id="55bbecjcwb" fill="#fff">
                                <use xlink:href="#sndpitjyoa"/>
                            </mask>
                            <path fill="#54FFDF" d="M18.043 2.03C16.926.084 14.459-.578 12.533.55L2.01 6.72C.083 7.848-.572 10.339.545 12.285c1.117 1.946 3.584 2.608 5.51 1.48l10.524-6.17c1.926-1.128 2.58-3.62 1.464-5.565" mask="url(#55bbecjcwb)"/>
                        </g>
                        <path fill="#6F65FF" d="M19.431 10.982c-1.042-2.167-3.686-2.898-5.748-1.689L3.354 15.347c-2.062 1.209-2.746 3.89-1.402 5.88 1.18 1.745 3.511 2.3 5.35 1.223l10.524-6.169c1.839-1.078 2.52-3.398 1.605-5.3" transform="translate(-20.000000, -4583.000000) translate(0.000000, 4276.000000) translate(20.000000, 286.000000) translate(0.000000, 21.000000)"/>
                        <g transform="translate(-20.000000, -4583.000000) translate(0.000000, 4276.000000) translate(20.000000, 286.000000) translate(0.000000, 21.000000) translate(58.472960, 3.067464)">
                            <mask id="zl2aez3pzd" fill="#fff">
                                <use xlink:href="#wied7ml8pc"/>
                            </mask>
                            <path fill="#000" d="M2.857 7.42H1.34V.654C1.34.293 1.04 0 .67 0 .3 0 0 .293 0 .655v15.541c0 .362.3.655.67.655.37 0 .67-.293.67-.655V8.73h1.517c.37 0 .67-.294.67-.655 0-.362-.3-.655-.67-.655" mask="url(#zl2aez3pzd)"/>
                        </g>
                        <path fill="#000" d="M52.444 18.099l-.46.008c-.007 0-.013.003-.02.003-.467.006-2.966-.029-4.346-1.373-.632-.615-.9-1.452-.894-2.47h-.002l.002-.025V4.907h5.422c.358 0 .648-.294.648-.655 0-.362-.29-.655-.648-.655H46.046c-.358 0-.649.293-.649.655v9.99c0 .02.005.04.006.06h-.001c-.009 1.376.437 2.512 1.327 3.375 1.655 1.608 4.337 1.734 5.14 1.734h.069c.023.002.046.006.07.006l.46-.01c.358-.006.642-.304.636-.666-.007-.361-.302-.649-.66-.642M41.896 6.81h-1.532V3.716c0-.374-.3-.678-.671-.678-.37 0-.671.304-.671.678v7.5c0 .375.3.678.67.678.371 0 .672-.303.672-.678V8.12h1.532c.358 0 .647-.293.647-.655 0-.361-.29-.654-.647-.654M40.164 18.686H27.69c-.443 0-.801-.362-.801-.81 0-.447.358-.81.8-.81h1.813l-.003-.009h10.348c.358 0 .647-.293.647-.655 0-.361-.29-.654-.647-.654h-7.68c-.032.004-.064.01-.097.01h-4.38c-.443 0-.801-.363-.801-.81 0-.447.358-.81.8-.81h12.158c.358 0 .647-.293.647-.655 0-.361-.29-.654-.647-.654H27.73c-.056-.005-.112-.009-.169-.009-1.158 0-2.097.949-2.097 2.119 0 .568.223 1.083.584 1.464-.361.38-.584.895-.584 1.464 0 1.164.929 2.107 2.078 2.118.035.006.07.01.107.01h12.515c.358 0 .647-.292.647-.654 0-.361-.29-.655-.647-.655M32.314 3.592l-.414-.003H26.128c-.358 0-.647.293-.647.655 0 .361.29.655.647.655h5.492v1.753.014c-.021.422-.289 3.363-5.004 3.926l-.004.002c-.302.053-.533.317-.533.638 0 .358.287.649.642.649.054 0 .105-.009.155-.022 5.697-.731 6.063-4.607 6.084-5.173l.001-.016V4.247c0-.362-.29-.655-.647-.655" transform="translate(-20.000000, -4583.000000) translate(0.000000, 4276.000000) translate(20.000000, 286.000000) translate(0.000000, 21.000000)"/>
                    </g>
                </g>
            </g>
        </g>
    </g>
</svg>
