<?xml version="1.0" encoding="UTF-8"?>
<svg xmlns="http://www.w3.org/2000/svg" xmlns:xlink="http://www.w3.org/1999/xlink" width="60pt" height="60pt" viewBox="0 0 60 60" version="1.1">
<g id="surface11679206">
<path style=" stroke:current;fill-rule:nonzero;fill:current;fill-opacity:1;" d="M 9.316406 8 C 7.238281 12.863281 8.078125 16.921875 8.816406 19.144531 C 5.832031 22.34375 4.003906 26.753906 4.003906 32.625 C 4.003906 47.160156 13.183594 52 30.003906 52 C 46.824219 52 56.003906 47.160156 56.003906 32.625 C 56.007812 26.953125 54.074219 22.53125 50.945312 19.269531 C 51.394531 18.535156 52.007812 17.097656 52.007812 14.375 C 52.007812 10.28125 50.632812 8 50.632812 8 C 48.496094 8 43.46875 8.863281 39.316406 12.996094 C 36.367188 12.261719 33.222656 12 30.007812 12 C 26.859375 12 23.777344 12.171875 20.882812 12.808594 C 20.695312 12.636719 15.523438 8 9.316406 8 Z M 20.011719 27 C 22.617188 27.027344 26.917969 27.996094 30.007812 28 C 33.097656 27.996094 37.394531 27.027344 40 27 C 45.042969 27 48 31.003906 48 35.945312 C 48 44.050781 43.3125 47.996094 30.011719 48 L 30 48 C 16.699219 47.996094 12.011719 44.050781 12.011719 35.945312 C 12.011719 31.003906 14.96875 27 20.011719 27 Z M 21 34 C 19.34375 34 18 35.789062 18 38 C 18 40.210938 19.34375 42 21 42 C 22.65625 42 24 40.210938 24 38 C 24 35.789062 22.65625 34 21 34 Z M 39 34 C 37.34375 34 36 35.789062 36 38 C 36 40.210938 37.34375 42 39 42 C 40.65625 42 42 40.210938 42 38 C 42 35.789062 40.65625 34 39 34 Z M 39 34 "/>
</g>
</svg>
