<svg xmlns="http://www.w3.org/2000/svg" viewBox="0 0 64 80" x="0px" y="0px"><title>Coding</title><g><circle style="fill:#2ed573;" cx="55" cy="11" r="2"/><path style="fill:#2ed573;" d="M60,30a1,1,0,0,0-1,1v1a1,1,0,0,0,2,0V31A1,1,0,0,0,60,30Z"/><path style="fill:#2ed573;" d="M26.29,30.39a1,1,0,0,0-1.4-.18l-9,7a1,1,0,0,0,0,1.58l9,7a1,1,0,0,0,1.4-.18,1,1,0,0,0-.18-1.4l-8-6.21,8-6.21A1,1,0,0,0,26.29,30.39Z"/><path style="fill:#2ed573;" d="M37.71,45.61a1,1,0,0,0,.79.39,1,1,0,0,0,.61-.21l9-7a1,1,0,0,0,0-1.58l-9-7a1,1,0,0,0-1.22,1.58l8,6.21-8,6.21A1,1,0,0,0,37.71,45.61Z"/><path style="fill:#2ed573;" d="M33.27,28.53,28.79,47a1,1,0,0,0,.73,1.2l.24,0a1,1,0,0,0,1-.76L35.21,29a1,1,0,0,0-1.94-.47Z"/><path style="fill:#2ed573;" d="M36,7H10a3,3,0,0,0-3,3v2a3,3,0,0,0,3,3H36a3,3,0,0,0,3-3V10A3,3,0,0,0,36,7Zm1,5a1,1,0,0,1-1,1H10a1,1,0,0,1-1-1V10a1,1,0,0,1,1-1H36a1,1,0,0,1,1,1Z"/><circle style="fill:#2ed573;" cx="49" cy="11" r="2"/><circle style="fill:#2ed573;" cx="43" cy="11" r="2"/><path style="fill:#2ed573;" d="M58,3H6A3,3,0,0,0,3,6V58a3,3,0,0,0,3,3H58a3,3,0,0,0,3-3V36a1,1,0,0,0-2,0V58a1,1,0,0,1-1,1H6a1,1,0,0,1-1-1V19H59v8a1,1,0,0,0,2,0V6A3,3,0,0,0,58,3Zm1,14H5V6A1,1,0,0,1,6,5H58a1,1,0,0,1,1,1Z"/></g></svg>