<svg xmlns="http://www.w3.org/2000/svg" viewBox="0 0 64 80" x="0px" y="0px"><title>Backend website</title><g data-name="Backend website"><path style="fill:#2ed573;" d="M10,15h2a1,1,0,0,0,0-2H10a1,1,0,0,1-1-1V10a1,1,0,0,1,1-1H36a1,1,0,0,1,1,1v2a1,1,0,0,1-1,1H21a1,1,0,0,0,0,2H36a3,3,0,0,0,3-3V10a3,3,0,0,0-3-3H10a3,3,0,0,0-3,3v2A3,3,0,0,0,10,15Z"/><path style="fill:#2ed573;" d="M17,13H16a1,1,0,0,0,0,2h1a1,1,0,0,0,0-2Z"/><circle style="fill:#2ed573;" cx="49" cy="11" r="2"/><circle style="fill:#2ed573;" cx="43" cy="11" r="2"/><circle style="fill:#2ed573;" cx="55" cy="11" r="2"/><path style="fill:#2ed573;" d="M58,3H6A3,3,0,0,0,3,6V58a3,3,0,0,0,3,3H58a3,3,0,0,0,3-3V6A3,3,0,0,0,58,3ZM6,5H58a1,1,0,0,1,1,1V17H5V6A1,1,0,0,1,6,5ZM58,59H6a1,1,0,0,1-1-1V19H59V58A1,1,0,0,1,58,59Z"/><path style="fill:#2ed573;" d="M47.49,35.74l-3.05-.51a13.79,13.79,0,0,0-1-2.36l1.8-2.52A3,3,0,0,0,45,26.48l-.44-.43a3,3,0,0,0-3.86-.32l-2.52,1.8a13.79,13.79,0,0,0-2.36-1l-.51-3A3,3,0,0,0,32.31,21h-.62a3,3,0,0,0-3,2.51l-.51,3a13.79,13.79,0,0,0-2.36,1l-2.52-1.8a3,3,0,0,0-3.87.32l-.43.43a3,3,0,0,0-.32,3.87l1.8,2.52a13.79,13.79,0,0,0-1,2.36l-3,.51A3,3,0,0,0,14,38.69v.62a3,3,0,0,0,2.51,2.95l3,.51a13.79,13.79,0,0,0,1,2.36l-1.8,2.52a3,3,0,0,0,.32,3.87l.43.43a3,3,0,0,0,2.12.88,3,3,0,0,0,1.75-.56l2.52-1.8a13.79,13.79,0,0,0,2.36,1l.51,3.05a3,3,0,0,0,3,2.51h.62a3,3,0,0,0,2.95-2.51l.51-3.05a13.79,13.79,0,0,0,2.36-1l2.52,1.8A3,3,0,0,0,44.51,52l.44-.43a3,3,0,0,0,.32-3.87l-1.8-2.52a13.79,13.79,0,0,0,1-2.36l3.05-.51A3,3,0,0,0,50,39.31v-.62A3,3,0,0,0,47.49,35.74ZM48,39.31a1,1,0,0,1-.84,1l-3.67.61-.2.08a1,1,0,0,0-.16.06,1,1,0,0,0-.19.17s-.07,0-.09.09a.89.89,0,0,0-.15.31l0,0h0a11.22,11.22,0,0,1-1.25,3,.69.69,0,0,0,0,.13,2.09,2.09,0,0,0-.08.23,1.34,1.34,0,0,0,0,.2,1.09,1.09,0,0,0,0,.18,1.12,1.12,0,0,0,.11.25l0,.1h0l2.15,3a1,1,0,0,1-.1,1.29l-.44.43a1,1,0,0,1-1.29.11l-3-2.16h0a.6.6,0,0,0-.11-.06,1,1,0,0,0-.24-.1h-.18a1.34,1.34,0,0,0-.2,0l-.22.08a.58.58,0,0,0-.14,0,11,11,0,0,1-3,1.25,1,1,0,0,0-.36.16l-.11.12a.83.83,0,0,0-.15.17,3,3,0,0,1-.14.36h0l-.61,3.67a1,1,0,0,1-1,.84h-.62a1,1,0,0,1-1-.84l-.61-3.67h0l0-.07a.79.79,0,0,0-.11-.29,1.07,1.07,0,0,0-.14-.16,1.42,1.42,0,0,0-.12-.13,1.38,1.38,0,0,0-.3-.14l0,0h0a11.09,11.09,0,0,1-3-1.25l-.12,0L26,48.3a1.48,1.48,0,0,0-.21,0h-.17a1.12,1.12,0,0,0-.25.11s-.07,0-.1,0h0l-3,2.15a1,1,0,0,1-1.29-.1l-.43-.44a1,1,0,0,1-.11-1.29l2.16-3a.67.67,0,0,0,.06-.12.94.94,0,0,0,.1-.23.61.61,0,0,0,0-.19,1.28,1.28,0,0,0,0-.19,1.25,1.25,0,0,0-.09-.25s0-.07,0-.11a11.15,11.15,0,0,1-1.25-3l0-.07a1.2,1.2,0,0,0-.13-.28,1.42,1.42,0,0,0-.13-.12.73.73,0,0,0-.16-.14.85.85,0,0,0-.24-.09s-.07,0-.12-.05l-3.67-.61a1,1,0,0,1-.84-1v-.62a1,1,0,0,1,.84-1l3.67-.61.07,0L20.8,37l.12-.07a.58.58,0,0,0,.18-.17.46.46,0,0,1,.07-.07,1,1,0,0,0,.15-.33,11.15,11.15,0,0,1,1.25-3s0-.08,0-.11A1.25,1.25,0,0,0,22.7,33a1.28,1.28,0,0,0,0-.19.61.61,0,0,0,0-.19.94.94,0,0,0-.1-.23.67.67,0,0,0-.06-.12l-2.16-3a1,1,0,0,1,.1-1.29l.44-.43a1,1,0,0,1,1.29-.11l3,2.16,0,0a1.3,1.3,0,0,0,.32.14h.05l.18,0,.12,0H26a.94.94,0,0,0,.32-.11,11.15,11.15,0,0,1,3-1.25l0,0a.65.65,0,0,0,.22-.11l.11-.06a1.12,1.12,0,0,0,.18-.2l.06-.07a1,1,0,0,0,.13-.35h0l.61-3.67a1,1,0,0,1,1-.84h.62a1,1,0,0,1,1,.84l.61,3.67h0a.41.41,0,0,1,0,.08,1.45,1.45,0,0,0,.11.29l.13.14a.86.86,0,0,0,.13.14,1.2,1.2,0,0,0,.28.13l.07,0a11.15,11.15,0,0,1,3,1.25.89.89,0,0,0,.31.11l.09,0h.11l.18,0h0a1.3,1.3,0,0,0,.32-.14l0,0,3-2.16a1,1,0,0,1,1.29.11l.44.43a1,1,0,0,1,.1,1.29l-2.15,3h0l0,.1a1.12,1.12,0,0,0-.11.25,1.09,1.09,0,0,0,0,.18,1.34,1.34,0,0,0,0,.2,2.09,2.09,0,0,0,.08.23.69.69,0,0,0,0,.13,11.22,11.22,0,0,1,1.25,3h0a1,1,0,0,0,.15.33.46.46,0,0,1,.07.07.73.73,0,0,0,.18.17l.12.07.22.08.07,0,3.67.61a1,1,0,0,1,.84,1Z"/><path style="fill:#2ed573;" d="M32,31a8,8,0,1,0,8,8A8,8,0,0,0,32,31Zm0,14a6,6,0,1,1,6-6A6,6,0,0,1,32,45Z"/></g></svg>